<svg xmlns="http://www.w3.org/2000/svg" viewBox="0 0 645.12 75.02">
    <polygon points="100.76 41.75 116.85 41.75 108.76 26.75 100.76 41.75" fill="#fff" />
    <path d="M120.48,1.9A37.49,37.49,0,0,0,73.13,25.77a37.5,37.5,0,1,0,0,23.48A37.5,37.5,0,1,0,120.48,1.9ZM60.89,44.65c0,7.54-2.7,10.63-9.89,11.36a137.75,137.75,0,0,1-15.73.66c-8.49,0-12.31-.27-15.07-1-4.2-1.11-6-3.77-6-9.11,0-.4,0-1.35.05-2.2H25.44c.11,2.82.51,3.49,2.2,3.88a50.11,50.11,0,0,0,7.14.4c13.43,0,14.84-.34,14.84-3.66,0-1.91-1.13-3-3.43-3.2a55.48,55.48,0,0,0-5.62-.11H30.23c-5.45,0-8.71-.33-10.63-1-3.93-1.35-5.51-4.22-5.51-10.12,0-7.48,2.39-10.51,9.39-11.41,3.66-.51,6.81-.62,14.06-.62,11,0,13.94.22,16.81,1.29,3.76,1.46,5,4,5,10.46H48.21c0-3.26-1.06-3.71-8.77-3.71-3.48,0-8.54.17-10.29.28-2.82.22-3.82,1-3.82,3.09a2.89,2.89,0,0,0,2.53,3,20,20,0,0,0,4.5.22H42.94c.72,0,3,.06,6,.17,5.68.23,7.93.92,9.68,2.92,1.51,1.69,2.3,4.5,2.3,8.38Zm63.67,11.61-3.71-6.69H96.67l-3.6,6.69H80.14l21.08-37.5h15.3L137,56.26Z" fill="#fff" />
    <path d="M190.8,44.57a3,3,0,0,1-1.69,3,2.26,2.26,0,0,1-.56.17l-.62.11a5.6,5.6,0,0,1-1,.06H165.1V41.08h22.61a3,3,0,0,1,1.07.17c1.35.42,2,1.51,2,3.27M189.43,30.4A2.89,2.89,0,0,1,188,33.21a3.64,3.64,0,0,1-1.29.39,17.1,17.1,0,0,1-2.48.12H165.1V27.08H184a19.18,19.18,0,0,1,2.2.06,11.54,11.54,0,0,1,1.18.16,3,3,0,0,1,2.08,3.15m7.93,7.42a22.48,22.48,0,0,0-4-.61,20.36,20.36,0,0,0,3-.68,6.65,6.65,0,0,0,1.91-1.07c1.62-1.27,2.42-3.58,2.42-6.91a11.83,11.83,0,0,0-1-5.18,7.09,7.09,0,0,0-3.09-3.2,11.25,11.25,0,0,0-3.48-1.12,33.63,33.63,0,0,0-5.4-.34H154v37.5h35.43a37.23,37.23,0,0,0,5.06-.28,11.53,11.53,0,0,0,3.26-.9q4.56-2.19,4.56-9.11c0-3.3-.82-5.6-2.48-6.91a7.06,7.06,0,0,0-2.41-1.19m46.34,3.88H227.63l8-15Zm7.7,14.51H263.9l-20.52-37.5h-15.3L207,56.26h12.94l3.6-6.69h24.18Zm50.78,0h18.33V18.76h-10.8L310,47.27,287.3,18.76H269.13v37.5h11L279.82,28Zm74.9-8.66a36.45,36.45,0,0,0,.17-3.77V42.15H366.19a7.49,7.49,0,0,1-.44,2.93,3,3,0,0,1-1.52,1.51A5.42,5.42,0,0,1,363,47a11.6,11.6,0,0,1-1.86.28c-.82,0-1.93.08-3.31.12h-5.46q-3.94,0-6.24-.23a6.87,6.87,0,0,1-3.5-1.17,4.54,4.54,0,0,1-1.52-2.81,37.16,37.16,0,0,1-.28-5.17c0-1,0-2,.06-3.09s.07-1.84.11-2.25a6.24,6.24,0,0,1,1.24-3.44,5.54,5.54,0,0,1,3.2-1.51,7.78,7.78,0,0,1,1.18-.06c.6,0,1.34-.05,2.2-.05s1.89-.06,3-.06,2.23-.06,3.43-.06c2.36,0,4.23,0,5.62.12a8.91,8.91,0,0,1,3.15.61,2.38,2.38,0,0,1,1.46,1.35,7,7,0,0,1,.39,2.36h10.91V30.51c0-3.15-.48-5.57-1.46-7.25a8.07,8.07,0,0,0-4.78-3.66,14,14,0,0,0-2.3-.56,32.91,32.91,0,0,0-3.43-.34c-1.39-.08-3.12-.13-5.18-.17s-4.51-.06-7.47-.06q-3.95,0-6.75.12a46.87,46.87,0,0,0-4.73.39,16.85,16.85,0,0,0-3.37.79,14.08,14.08,0,0,0-2.7,1.18,9.57,9.57,0,0,0-2.48,2,9,9,0,0,0-1.57,3,20.45,20.45,0,0,0-.79,4.38q-.22,2.6-.22,6.3c0,2.77.07,5.14.22,7.08a25.92,25.92,0,0,0,.79,4.95A10.88,10.88,0,0,0,332,51.93a8.42,8.42,0,0,0,2.31,2.14,12.69,12.69,0,0,0,2.47,1.24,19.31,19.31,0,0,0,3.27.73,46.68,46.68,0,0,0,4.72.39c1.83.08,4.09.11,6.75.11,4.19,0,7.57,0,10.12-.11s4.67-.13,6.24-.28a16.27,16.27,0,0,0,3.65-.78A13.82,13.82,0,0,0,374,54a7.3,7.3,0,0,0,1.52-1.52,8,8,0,0,0,1-2.08,13.65,13.65,0,0,0,.56-2.76m9.17,8.66h11.41V18.76H386.27Zm65.57,0,20.75-37.5H459.88L444.75,47.1,430,18.76H417.37l20,37.5ZM504.45,41.8H488.39l8-15Zm7.71,14.51h12.48l-20.52-37.5h-15.3l-21.09,37.5h12.94l3.6-6.69h24.18Zm68.38,0-23.62-19,21.54-18.55H562.79l-15.52,14h-6v-14H529.89v37.5h11.42V41.87H547l17,14.39Zm17-29H626V18.76H586.18v37.5h11.36v-13h27V34.73h-27Zm47.58-8.49H633.7v37.5h11.42Z" fill="#fff" />
</svg>