<svg xmlns="http://www.w3.org/2000/svg" viewBox="0 0 645.12 75">
    <path d="M0,37.5A37.51,37.51,0,0,1,73.13,25.76a37.5,37.5,0,1,1,0,23.48A37.51,37.51,0,0,1,0,37.5" fill="#00539f" />
    <path d="M60.92,44.61c0-3.88-.79-6.69-2.3-8.38-1.75-2-4-2.69-9.68-2.92-3-.11-5.28-.17-6-.17H32.36a20.09,20.09,0,0,1-4.5-.22,2.89,2.89,0,0,1-2.53-3c0-2.08,1-2.87,3.82-3.09,1.75-.11,6.81-.28,10.29-.28,7.71,0,8.77.45,8.77,3.71H59.35c0-6.47-1.24-9-5-10.46-2.87-1.07-5.85-1.29-16.81-1.29-7.25,0-10.4.11-14.06.62-7,.9-9.39,3.93-9.39,11.41,0,5.9,1.58,8.77,5.51,10.12,1.92.67,5.18,1,10.63,1H40.57a54.91,54.91,0,0,1,5.62.11c2.3.22,3.43,1.29,3.43,3.2,0,3.32-1.41,3.66-14.84,3.66a49.76,49.76,0,0,1-7.14-.4c-1.69-.39-2.09-1.06-2.2-3.88H14.25c-.05.85-.05,1.8-.05,2.2,0,5.34,1.8,8,6,9.11,2.76.73,6.58,1,15.07,1A139.93,139.93,0,0,0,51,56c7.19-.73,9.89-3.82,9.89-11.36" fill="#ffffff" />
    <path d="M137,56.25H124.56l-3.71-6.69H96.67l-3.6,6.69H80.14l21.08-37.5h15.3ZM116.85,41.74l-8.09-15-8,15Z" fill="#ffffff" />
    <path d="M190.8,44.56a3,3,0,0,1-1.69,3,2.39,2.39,0,0,1-.56.17l-.62.11a5.7,5.7,0,0,1-1,.06H165.1V41.07h20.13c1.24,0,2.06,0,2.48,0a3.16,3.16,0,0,1,1.07.17c1.35.42,2,1.51,2,3.27m-1.35-14.12A2.9,2.9,0,0,1,188,33.2a3.51,3.51,0,0,1-1.29.39,17.49,17.49,0,0,1-2.48.12H165.1V27.07H184c1.09,0,1.82,0,2.2.06a10.83,10.83,0,0,1,1.18.16,3,3,0,0,1,2.08,3.15m7.93,7.42a22.24,22.24,0,0,0-4-.61,21.26,21.26,0,0,0,3-.68,6.73,6.73,0,0,0,1.91-1.07c1.62-1.27,2.42-3.58,2.42-6.91a11.77,11.77,0,0,0-1-5.18,7.06,7.06,0,0,0-3.09-3.2,11.21,11.21,0,0,0-3.48-1.12,33.06,33.06,0,0,0-5.4-.34H154v37.5h35.43a36.54,36.54,0,0,0,5.06-.28,11.47,11.47,0,0,0,3.26-.9q4.56-2.19,4.56-9.11c0-3.3-.82-5.6-2.48-6.91a7,7,0,0,0-2.41-1.19m46.34,3.88H227.63l8-15Zm7.7,14.51H263.9l-20.52-37.5h-15.3L207,56.25h12.94l3.6-6.69h24.18Zm50.78,0h18.33V18.75h-10.8L310,47.26,287.3,18.75H269.13v37.5h11L279.82,28Zm74.9-8.66a34.86,34.86,0,0,0,.17-3.77V42.14H366.19a7.46,7.46,0,0,1-.44,2.93,3,3,0,0,1-1.52,1.51A5.87,5.87,0,0,1,363,47a11.45,11.45,0,0,1-1.86.28c-.82,0-1.93.08-3.31.12h-5.46q-3.94,0-6.24-.23A6.82,6.82,0,0,1,342.63,46a4.52,4.52,0,0,1-1.52-2.81,36.91,36.91,0,0,1-.28-5.17c0-1,0-2,.06-3.09s.07-1.84.11-2.25a6.26,6.26,0,0,1,1.24-3.44,5.5,5.5,0,0,1,3.2-1.51,7.86,7.86,0,0,1,1.18-.06c.6,0,1.34-.05,2.2-.05s1.89-.06,3-.06,2.23-.06,3.43-.06c2.36,0,4.23,0,5.62.12a8.81,8.81,0,0,1,3.15.61,2.37,2.37,0,0,1,1.46,1.35,7,7,0,0,1,.39,2.36h10.91V30.5c0-3.15-.48-5.57-1.46-7.25a8.07,8.07,0,0,0-4.78-3.66,14.1,14.1,0,0,0-2.3-.56,33.22,33.22,0,0,0-3.43-.34c-1.39-.08-3.12-.13-5.18-.17s-4.51-.06-7.47-.06q-3.94,0-6.75.12a45.74,45.74,0,0,0-4.73.39,17.28,17.28,0,0,0-3.37.79,14.08,14.08,0,0,0-2.7,1.18,9.37,9.37,0,0,0-2.48,2,9,9,0,0,0-1.57,3,20.53,20.53,0,0,0-.79,4.38q-.22,2.6-.22,6.3c0,2.77.07,5.14.22,7.08a25.92,25.92,0,0,0,.79,4.95A10.83,10.83,0,0,0,332,51.92a8.34,8.34,0,0,0,2.31,2.14,12.68,12.68,0,0,0,2.47,1.24,19.6,19.6,0,0,0,3.27.73,45.53,45.53,0,0,0,4.72.39c1.83.08,4.09.11,6.75.11,4.19,0,7.57,0,10.12-.11s4.67-.13,6.24-.28a16,16,0,0,0,3.65-.78A13.88,13.88,0,0,0,374,54a7.3,7.3,0,0,0,1.52-1.52,8.21,8.21,0,0,0,1-2.08,13.29,13.29,0,0,0,.56-2.76m9.17,8.66h11.41V18.75H386.27Zm65.57,0,20.75-37.5H459.88L444.75,47.09,430,18.75H417.37l20,37.5Zm52.63-14.51H488.39l8-15Zm7.71,14.51h12.48l-20.52-37.5h-15.3l-21.09,37.5h12.94l3.6-6.69h24.18Zm68.38,0-23.62-19,21.54-18.55H562.79l-15.52,14h-6v-14H529.89v37.5h11.42V41.86H547L564,56.25Zm17-29H626V18.75H586.18v37.5h11.36v-13h27V34.72h-27Zm47.58-8.49H633.7v37.5h11.42Z" fill="#00539f" />
</svg>